<svg xmlns="http://www.w3.org/2000/svg" width="80.003" height="49.741" viewBox="0 0 80.003 49.741"><g transform="translate(-46 -44.787)"><g transform="translate(80.818 44.267) rotate(34)"><path d="M38.807,20.913v-.045l-1.782-1.331L34.86,21.161,32.7,19.537l-1.624,1.218a9.44,9.44,0,0,0-.654-2.458c-.113-.248-.226-.519-.361-.767l.767-1.8,2.684.316,1.06-2.481,2.233.271-.113-.2c-.2-.361-.406-.7-.631-1.037l-.023-.045-2.21-.271-1.06,2.481-2.684-.316-.812,1.872a11.737,11.737,0,0,0-.834-.97,8.546,8.546,0,0,0-1.669-1.308l-.226-1.94,2.481-1.06L28.7,8.351l2.075-.88-.2-.113c-.338-.2-.677-.383-1.06-.586L29.47,6.75l-2.03.88.316,2.684-2.481,1.06.248,2.03h0a9.082,9.082,0,0,0-3.293-.722L21.058,11.1l1.624-2.165L21.035,6.772l1.353-1.8H22.05a9.3,9.3,0,0,0-1.105.023H20.9L19.547,6.772l1.624,2.165L19.547,11.1l1.218,1.624a9.44,9.44,0,0,0-2.458.654c-.248.113-.519.226-.767.361l-1.8-.767.316-2.684L13.57,9.23,13.841,7l-.2.113c-.361.2-.7.406-1.037.631l-.045.023-.271,2.21,2.481,1.06-.293,2.684,1.872.812a11.737,11.737,0,0,0-.97.834,8.546,8.546,0,0,0-1.308,1.669l-1.94.226-1.06-2.481-2.684.316L7.5,13.019l-.113.2c-.2.338-.383.677-.586,1.06l-.023.045.88,2.03,2.684-.316,1.06,2.481,2.03-.248h0a9.082,9.082,0,0,0-.722,3.293L11.134,22.74,8.969,21.116,6.8,22.762,5,21.409v.474c0,.293,0,.609.023.97V22.9L6.8,24.228,8.969,22.6l2.165,1.624,1.624-1.218a9.44,9.44,0,0,0,.654,2.458c.113.248.226.519.361.767l-.767,1.8-2.684-.316L9.263,30.2,7.03,29.934l.113.2c.2.361.406.7.631,1.037l.023.045,2.21.271,1.06-2.481,2.684.316.812-1.872a11.737,11.737,0,0,0,.834.97,8.546,8.546,0,0,0,1.669,1.308l.226,1.94-2.481,1.06.316,2.684-2.075.88.2.113c.338.2.677.383,1.06.586l.045.023,2.03-.88-.316-2.684,2.481-1.06-.248-2.03h0a9.082,9.082,0,0,0,3.293.722l1.173,1.579-1.624,2.165,1.624,2.165-1.353,1.8h.474c.293,0,.609,0,.97-.023h.045l1.331-1.782-1.624-2.165,1.624-2.165L23.02,31.039a9.44,9.44,0,0,0,2.458-.654c.248-.113.519-.226.767-.361l1.8.767-.316,2.684,2.481,1.06-.271,2.233.2-.113c.361-.2.7-.406,1.037-.631L31.229,36l.271-2.21-2.481-1.06.316-2.684-1.872-.812a11.736,11.736,0,0,0,.97-.834,8.546,8.546,0,0,0,1.308-1.669l1.94-.226,1.06,2.481,2.684-.316.88,2.075.113-.2c.2-.338.383-.677.586-1.06l.023-.045-.88-2.03-2.684.316L32.4,25.243l-2.03.248h0a9.082,9.082,0,0,0,.722-3.293l1.579-1.173,2.165,1.624L37,21.026l1.8,1.353v-.474a7.276,7.276,0,0,0,0-.992Zm-8.863,1.443a8.178,8.178,0,0,1-.609,2.661c-.068.135-.135.293-.226.474a7.563,7.563,0,0,1-.474.812A7.925,7.925,0,0,1,27.6,27.566,9.368,9.368,0,0,1,26.335,28.6q-.372.237-.812.474c-.18.09-.338.158-.474.226a7.638,7.638,0,0,1-2.661.609,6.324,6.324,0,0,1-.925,0A8.178,8.178,0,0,1,18.8,29.3c-.135-.068-.293-.135-.474-.226a7.563,7.563,0,0,1-.812-.474,7.925,7.925,0,0,1-1.263-1.037A9.368,9.368,0,0,1,15.217,26.3q-.237-.372-.474-.812c-.09-.18-.158-.338-.226-.474a7.638,7.638,0,0,1-.609-2.661c0-.158-.023-.316-.023-.474a3.331,3.331,0,0,1,.023-.474,8.178,8.178,0,0,1,.609-2.661c.068-.135.135-.293.226-.474a7.563,7.563,0,0,1,.474-.812A7.925,7.925,0,0,1,16.254,16.2a9.368,9.368,0,0,1,1.263-1.037q.372-.237.812-.474c.18-.09.338-.158.474-.226a7.638,7.638,0,0,1,2.661-.609c.158,0,.316-.023.474-.023a3.331,3.331,0,0,1,.474.023,8.178,8.178,0,0,1,2.661.609c.135.068.293.135.474.226a7.563,7.563,0,0,1,.812.474,8.376,8.376,0,0,1,2.3,2.3q.237.372.474.812c.09.18.158.338.226.474a7.638,7.638,0,0,1,.609,2.661c0,.158.023.316.023.474A3.365,3.365,0,0,1,29.944,22.356Z" transform="translate(-3.55 -3.466)"/><path d="M75.419,73a2.319,2.319,0,1,0,2.319,2.319A2.262,2.262,0,0,0,75.419,73Zm0,2.891a.567.567,0,0,1-.571-.571.614.614,0,0,1,.571-.571.567.567,0,0,1,.571.571A.589.589,0,0,1,75.419,75.891Z" transform="translate(-56.895 -56.988)"/><g transform="matrix(1, -0.017, 0.017, 1, 0, 0.628)" fill="none"><path d="M17.979,0A17.979,17.979,0,1,1,0,17.979,17.979,17.979,0,0,1,17.979,0Z" stroke="none"/><path d="M 17.97893905639648 2 C 13.7108097076416 2 9.698148727416992 3.662097930908203 6.680118560791016 6.680118560791016 C 3.662097930908203 9.698148727416992 2 13.7108097076416 2 17.97893905639648 C 2 22.2470703125 3.662097930908203 26.25972938537598 6.680118560791016 29.27775955200195 C 9.698148727416992 32.29578018188477 13.7108097076416 33.95787811279297 17.97893905639648 33.95787811279297 C 22.2470703125 33.95787811279297 26.25972938537598 32.29578018188477 29.27775955200195 29.27775955200195 C 32.29578018188477 26.25972938537598 33.95787811279297 22.2470703125 33.95787811279297 17.97893905639648 C 33.95787811279297 13.7108097076416 32.29578018188477 9.698148727416992 29.27775955200195 6.680118560791016 C 26.25972938537598 3.662097930908203 22.2470703125 2 17.97893905639648 2 M 17.97893905639648 0 C 27.90842819213867 0 35.95787811279297 8.049449920654297 35.95787811279297 17.97893905639648 C 35.95787811279297 27.90842819213867 27.90842819213867 35.95787811279297 17.97893905639648 35.95787811279297 C 8.049449920654297 35.95787811279297 0 27.90842819213867 0 17.97893905639648 C 0 8.049449920654297 8.049449920654297 0 17.97893905639648 0 Z" stroke="none"/></g></g><path d="M86.67,51.6a54.055,54.055,0,0,1-18.1,14.5A44.936,44.936,0,0,1,48,71a45.612,45.612,0,0,1-20.667-4.9,55,55,0,0,1-18.1-14.5L8,50l1.333-1.6a54.055,54.055,0,0,1,18.1-14.5A44.936,44.936,0,0,1,48,29a45.612,45.612,0,0,1,20.667,4.9,55,55,0,0,1,18.1,14.5L88,50ZM48,33.9C35.43,33.9,23.524,39.6,14.286,50,23.524,60.4,35.43,66.1,48,66.1S72.479,60.4,81.717,50C72.479,39.6,60.573,33.9,48,33.9Z" transform="translate(38 20)"/></g></svg>