<svg xmlns="http://www.w3.org/2000/svg" xmlns:xlink="http://www.w3.org/1999/xlink" width="256" height="256" viewBox="0 0 256 256">
  <defs>
    <clipPath id="clip-icon">
      <rect width="256" height="256"/>
    </clipPath>
  </defs>
  <g id="icon" clip-path="url(#clip-icon)">
    <g id="g12" transform="matrix(0.829, 0.559, -0.559, 0.829, 112.681, 48.652)">
      <path id="path2" d="M115.438,57.052v-.147l-5.821-4.347-7.072,5.3-7.056-5.3-5.305,3.978a30.827,30.827,0,0,0-2.136-8.028c-.369-.81-.738-1.7-1.179-2.505l2.506-5.879,8.768,1.032,3.463-8.1,7.295.885-.369-.653c-.653-1.179-1.326-2.286-2.061-3.387l-.075-.147-7.219-.885-3.463,8.1-8.768-1.032L84.29,42.051a38.337,38.337,0,0,0-2.724-3.168,27.916,27.916,0,0,0-5.452-4.272l-.738-6.336,8.1-3.462-1.058-8.789L89.2,13.15l-.653-.369c-1.1-.653-2.212-1.251-3.463-1.914l-.147-.072-6.631,2.874,1.032,8.766-8.1,3.462.81,6.63h0a29.674,29.674,0,0,0-10.757-2.358L57.457,25l5.305-7.071-5.38-7.065L61.8,4.988H60.7a30.386,30.386,0,0,0-3.61.075h-.147l-4.42,5.8,5.305,7.071L52.521,25l3.979,5.3a30.843,30.843,0,0,0-8.03,2.136c-.81.369-1.7.738-2.506,1.179l-5.88-2.505,1.032-8.766L33,18.895l.885-7.283-.653.369c-1.179.653-2.287,1.326-3.388,2.061l-.147.075-.885,7.218,8.1,3.462-.957,8.766,6.115,2.652A38.34,38.34,0,0,0,38.9,38.938a27.913,27.913,0,0,0-4.273,5.451l-6.337.738-3.463-8.1-8.768,1.032L13.167,31.27l-.369.653c-.653,1.1-1.251,2.211-1.914,3.462l-.075.147,2.875,6.63,8.768-1.032,3.463,8.1,6.631-.81h0a29.657,29.657,0,0,0-2.359,10.755l-5.148,3.841-7.072-5.3L10.88,63.091,5,58.672V60.22c0,.957,0,1.989.075,3.168v.154l5.8,4.337,7.086-5.317,7.072,5.3,5.305-3.978a30.827,30.827,0,0,0,2.136,8.028c.369.81.738,1.7,1.179,2.505L31.153,80.3l-8.768-1.032-3.459,8.116-7.295-.869.369.653c.653,1.179,1.326,2.286,2.061,3.387l.075.147,7.219.885,3.463-8.1,8.768,1.032L36.24,78.4a38.336,38.336,0,0,0,2.724,3.168,27.916,27.916,0,0,0,5.452,4.272l.738,6.336-8.1,3.462,1.032,8.766L31.3,107.281l.653.369c1.1.653,2.212,1.251,3.463,1.914l.147.075,6.631-2.874L41.166,98l8.1-3.462-.81-6.63h0a29.674,29.674,0,0,0,10.757,2.358l3.832,5.157-5.305,7.071,5.305,7.071-4.42,5.879h1.548c.957,0,1.989,0,3.169-.075h.147l4.348-5.82-5.305-7.071,5.305-7.071-3.976-5.281a30.844,30.844,0,0,0,8.03-2.136c.81-.369,1.7-.738,2.506-1.179l5.88,2.505L79.249,98.08l8.1,3.462-.885,7.293.653-.369c1.179-.653,2.287-1.326,3.388-2.061l.173-.078.885-7.218-8.1-3.462L84.5,86.881l-6.115-2.652a38.335,38.335,0,0,0,3.169-2.724,27.913,27.913,0,0,0,4.273-5.451l6.337-.738,3.463,8.1,8.768-1.032,2.875,6.777.369-.653c.653-1.1,1.251-2.211,1.914-3.462l.075-.147-2.875-6.63L97.981,79.3l-3.473-8.11L87.877,72h0a29.657,29.657,0,0,0,2.359-10.755l5.158-3.831,7.072,5.3,7.069-5.3,5.88,4.419V60.292a23.759,23.759,0,0,0,0-3.24ZM86.485,61.765A26.705,26.705,0,0,1,84.5,70.456c-.222.441-.441.957-.738,1.548a24.7,24.7,0,0,1-1.548,2.652,25.884,25.884,0,0,1-3.381,4.125A30.6,30.6,0,0,1,74.7,82.158q-1.215.774-2.653,1.548c-.588.294-1.1.516-1.548.738A24.956,24.956,0,0,1,61.8,86.434a20.664,20.664,0,0,1-3.022,0,26.72,26.72,0,0,1-8.7-1.989c-.441-.222-.957-.441-1.548-.738a24.709,24.709,0,0,1-2.653-1.548,25.888,25.888,0,0,1-4.126-3.387,30.6,30.6,0,0,1-3.378-4.125q-.774-1.215-1.548-2.652c-.294-.588-.516-1.1-.738-1.548A24.942,24.942,0,0,1,34.1,61.755c0-.516-.075-1.032-.075-1.548a10.878,10.878,0,0,1,.075-1.548,26.705,26.705,0,0,1,1.989-8.691c.222-.441.441-.957.738-1.548a24.7,24.7,0,0,1,1.548-2.652,25.885,25.885,0,0,1,3.388-4.109,30.6,30.6,0,0,1,4.126-3.387q1.215-.774,2.653-1.548c.588-.294,1.1-.516,1.548-.738A24.956,24.956,0,0,1,58.783,34c.516,0,1.032-.075,1.548-.075A10.885,10.885,0,0,1,61.88,34a26.72,26.72,0,0,1,8.693,1.989c.441.222.957.441,1.548.738a24.707,24.707,0,0,1,2.653,1.548,27.359,27.359,0,0,1,7.513,7.512q.774,1.215,1.548,2.652c.294.588.516,1.1.738,1.548a24.942,24.942,0,0,1,1.989,8.691c0,.516.075,1.032.075,1.548a10.991,10.991,0,0,1-.154,1.542Z" transform="translate(-3.55 -3.466)"/>
      <path id="path4" d="M75.419,73a2.319,2.319,0,1,0,2.319,2.319A2.262,2.262,0,0,0,75.419,73Zm0,2.891a.567.567,0,0,1-.571-.571.614.614,0,0,1,.571-.571.567.567,0,0,1,.571.571.589.589,0,0,1-.571.571Z" transform="translate(-18.061 -18.662)"/>
      <g id="g10" transform="translate(0.001 1.956) rotate(-0.974)">
        <path id="path6" d="M56.305,0A56.3,56.3,0,1,1,0,56.3,56.3,56.3,0,0,1,56.305,0Z" transform="translate(0.001 0)" fill="none"/>
        <path id="path8" d="M56.305,6.262A50.032,50.032,0,0,0,20.92,91.676a50.038,50.038,0,1,0,70.77-70.759A49.719,49.719,0,0,0,56.305,6.262m0-6.262A56.3,56.3,0,1,1,0,56.3,56.3,56.3,0,0,1,56.305,0Z" transform="translate(0.001 0)"/>
      </g>
    </g>
    <path id="path14" d="M259.744,101.321a172.976,172.976,0,0,1-57.92,46.4A143.8,143.8,0,0,1,136,163.4a145.958,145.958,0,0,1-66.134-15.68,176,176,0,0,1-57.92-46.4L8,96.2l4.266-5.12a172.976,172.976,0,0,1,57.92-46.4A143.795,143.795,0,0,1,136,29a145.958,145.958,0,0,1,66.134,15.68,176,176,0,0,1,57.92,46.4L264,96.2ZM136,44.681c-40.224,0-78.323,18.24-107.885,51.52,29.562,33.28,67.661,51.52,107.885,51.52s78.333-18.24,107.894-51.52C214.333,62.921,176.234,44.681,136,44.681Z" transform="translate(-8 31.932)"/>
  </g>
</svg>
